<?xml version="1.0" encoding="UTF-8"?>
<svg version="1.1"
    xmlns="http://www.w3.org/2000/svg" width="90" height="90">
     <defs>
        <linearGradient id="gradient" x1="0%" y1="0%" x2="100%" y2="100%">
            <stop offset="0%" stop-color="#fc5c7d" />
            <stop offset="50%" stop-color="#6a82fb" />
            <stop offset="100%" stop-color="#05dfd7" />
        </linearGradient>
    </defs>

    <rect width="100%" height="100%" fill="url(#gradient)" />
     <g transform="translate(4, 4)">
    <path d="M0 0 C0.71898972 -0.00365067 1.43797943 -0.00730133 2.17875671 -0.01106262 C4.55552787 -0.01916939 6.93161758 -0.00555887 9.30834961 0.0090332 C10.95836893 0.00955174 12.60838888 0.00903429 14.25840759 0.00752258 C17.71598536 0.00761231 21.17332997 0.01804323 24.63085938 0.03613281 C29.06872609 0.05883785 33.50625258 0.05936095 37.94416142 0.05261517 C41.35073383 0.04927843 44.75722829 0.05589938 48.16378593 0.0657444 C49.80049672 0.06960046 51.43721618 0.07074294 53.07393074 0.06915855 C55.35804997 0.06878885 57.64172811 0.08138041 59.92578125 0.09765625 C61.87744957 0.10456734 61.87744957 0.10456734 63.86854553 0.11161804 C66.89819336 0.37231445 66.89819336 0.37231445 68.89819336 2.37231445 C69.09111759 4.80615076 69.16060358 7.12565801 69.14111328 9.56005859 C69.14301163 10.30001572 69.14490997 11.03997284 69.14686584 11.80235291 C69.15057797 14.25416578 69.13986425 16.70568405 69.12866211 19.1574707 C69.12747055 20.85615504 69.1270171 22.55484004 69.12727356 24.25352478 C69.12570799 27.81538002 69.11741211 31.37713486 69.10400391 34.93896484 C69.08700105 39.51477032 69.08318988 44.0904655 69.08394909 48.66629887 C69.08367777 52.17403729 69.0782029 55.68175138 69.07094765 59.18948174 C69.0677558 60.87726088 69.06579238 62.56504279 69.06505394 64.25282478 C69.06289654 66.60658639 69.05416583 68.96022868 69.04345703 71.31396484 C69.04391022 72.01788361 69.0443634 72.72180237 69.04483032 73.447052 C69.01266854 78.25783927 69.01266854 78.25783927 67.89819336 79.37231445 C65.53597118 79.47788062 63.20283952 79.51909943 60.83984375 79.51757812 C60.10163895 79.52093674 59.36343414 79.52429535 58.6028595 79.52775574 C56.15050598 79.53729327 53.69822054 79.53921025 51.24584961 79.5402832 C49.54813101 79.54349385 47.8504127 79.54685777 46.1526947 79.55036926 C42.58909463 79.55636756 39.02551883 79.55820845 35.46191406 79.55761719 C30.88726292 79.55751553 26.31276686 79.57116865 21.7381525 79.5883894 C18.23037496 79.5994879 14.72263515 79.60153706 11.21484184 79.60100746 C9.52788191 79.6021908 7.84092109 79.60663224 6.15397835 79.61433983 C3.79785311 79.62409654 1.44206778 79.62127898 -0.9140625 79.61523438 C-1.61595703 79.62085388 -2.31785156 79.62647339 -3.04101562 79.63226318 C-7.87349087 79.60063023 -7.87349087 79.60063023 -10.10180664 77.37231445 C-10.36250305 74.34266663 -10.36250305 74.34266663 -10.37646484 70.39990234 C-10.38157578 69.68266495 -10.38668671 68.96542755 -10.39195251 68.22645569 C-10.40588293 65.84920977 -10.40488916 63.47225265 -10.40258789 61.0949707 C-10.40647304 59.44591666 -10.41080733 57.79686362 -10.41557312 56.14781189 C-10.42304282 52.6885148 -10.42273874 49.22931975 -10.41748047 45.77001953 C-10.41168586 41.33328084 -10.42861275 36.89695961 -10.45182514 32.46028996 C-10.46654561 29.05368094 -10.46743648 25.64717283 -10.46431541 22.24053764 C-10.46482951 20.60464082 -10.47008384 18.96873847 -10.48012733 17.33287239 C-10.49244166 15.04634484 -10.48573085 12.7606352 -10.47412109 10.47412109 C-10.47475052 9.17221329 -10.47537994 7.87030548 -10.47602844 6.52894592 C-10.10180664 3.37231445 -10.10180664 3.37231445 -9.0223999 1.45172119 C-6.03141228 -0.22926575 -3.40961014 -0.00164842 0 0 Z M0.89819336 30.37231445 C0.89819336 35.98231445 0.89819336 41.59231445 0.89819336 47.37231445 C2.21819336 47.37231445 3.53819336 47.37231445 4.89819336 47.37231445 C4.89819336 45.39231445 4.89819336 43.41231445 4.89819336 41.37231445 C5.88819336 41.37231445 6.87819336 41.37231445 7.89819336 41.37231445 C8.12506836 42.17668945 8.35194336 42.98106445 8.58569336 43.80981445 C9.01881836 44.65543945 9.45194336 45.50106445 9.89819336 46.37231445 C12.44594642 47.26617609 12.44594642 47.26617609 14.89819336 47.37231445 C13.57819336 44.73231445 12.25819336 42.09231445 10.89819336 39.37231445 C11.55819336 39.37231445 12.21819336 39.37231445 12.89819336 39.37231445 C13.75794137 37.07936958 13.75794137 37.07936958 13.89819336 34.37231445 C12.63456637 31.85524289 12.63456637 31.85524289 9.89819336 30.37231445 C6.81578139 30.0386513 4.01521434 30.18896028 0.89819336 30.37231445 Z M15.96069336 36.05981445 C14.68515264 38.83599131 14.36993162 40.35367595 14.89819336 43.37231445 C16.33480647 45.89238289 16.33480647 45.89238289 18.89819336 47.37231445 C23.95512235 47.22949938 23.95512235 47.22949938 27.89819336 44.37231445 C28.34688509 39.73007105 28.34688509 39.73007105 26.83569336 35.43481445 C23.10341081 33.38807886 19.22055409 33.22058091 15.96069336 36.05981445 Z M30.89819336 34.37231445 C30.89819336 38.66231445 30.89819336 42.95231445 30.89819336 47.37231445 C31.88819336 47.37231445 32.87819336 47.37231445 33.89819336 47.37231445 C33.89819336 45.39231445 33.89819336 43.41231445 33.89819336 41.37231445 C34.35709961 41.81704102 34.81600586 42.26176758 35.28881836 42.7199707 C35.90241211 43.28586914 36.51600586 43.85176758 37.14819336 44.43481445 C37.75147461 45.00329102 38.35475586 45.57176758 38.97631836 46.1574707 C40.8409172 47.62640776 40.8409172 47.62640776 43.13256836 47.0559082 C43.71522461 46.83032227 44.29788086 46.60473633 44.89819336 46.37231445 C43.24819336 44.72231445 41.59819336 43.07231445 39.89819336 41.37231445 C41.10200784 38.87869874 42.35248058 36.69088363 43.89819336 34.37231445 C39.49704939 34.87530233 37.18624317 36.46004177 33.89819336 39.37231445 C33.89819336 37.72231445 33.89819336 36.07231445 33.89819336 34.37231445 C32.90819336 34.37231445 31.91819336 34.37231445 30.89819336 34.37231445 Z M45.89819336 34.37231445 C45.81697412 35.97564236 45.75890202 37.58015472 45.71069336 39.18481445 C45.67588867 40.07813477 45.64108398 40.97145508 45.60522461 41.8918457 C45.6927134 44.41428405 45.6927134 44.41428405 47.25756836 46.18481445 C49.54560765 47.84091908 51.12453237 47.57526526 53.89819336 47.37231445 C55.56486003 47.37231445 57.23152669 47.37231445 58.89819336 47.37231445 C58.89819336 43.08231445 58.89819336 38.79231445 58.89819336 34.37231445 C57.57819336 34.37231445 56.25819336 34.37231445 54.89819336 34.37231445 C54.89819336 37.67231445 54.89819336 40.97231445 54.89819336 44.37231445 C53.57819336 44.37231445 52.25819336 44.37231445 50.89819336 44.37231445 C50.56819336 41.07231445 50.23819336 37.77231445 49.89819336 34.37231445 C48.57819336 34.37231445 47.25819336 34.37231445 45.89819336 34.37231445 Z " fill="#FFFFFF" transform="translate(11.101806640625,-0.372314453125)"/>
    <path d="M0 0 C2.0625 0.4375 2.0625 0.4375 4 1 C4.625 3.3125 4.625 3.3125 5 6 C4.01 7.485 4.01 7.485 3 9 C1.68 8.34 0.36 7.68 -1 7 C-1.04254356 5.00045254 -1.04080783 2.99958364 -1 1 C-0.67 0.67 -0.34 0.34 0 0 Z " fill="#FFFFFF" transform="translate(31,36)"/>
    <path d="M0 0 C2.475 0.495 2.475 0.495 5 1 C5 2.65 5 4.3 5 6 C3.35 6.33 1.7 6.66 0 7 C0 4.69 0 2.38 0 0 Z " fill="#FFFFFF" transform="translate(16,32)"/>
</g>
</svg>
